<svg xmlns="http://www.w3.org/2000/svg" xmlns:xlink="http://www.w3.org/1999/xlink" viewBox="0,0,256,256" width="64px" height="64px" fill-rule="nonzero"><g fill="none" fill-rule="nonzero" stroke="none" stroke-width="none" stroke-linecap="butt" stroke-linejoin="none" stroke-miterlimit="10" stroke-dasharray="" stroke-dashoffset="0" font-family="none" font-weight="none" font-size="none" text-anchor="none" style="mix-blend-mode: normal"><path transform="translate(64.1173,-41.30619) rotate(24) scale(4,4)" d="M54.419,40.218c0.672,-0.408 1.526,0.072 1.5,0.857l-0.449,13.488c-0.034,1.032 -0.864,1.859 -1.896,1.89l-17.799,0.545c-0.787,0.023 -1.263,-0.835 -0.85,-1.505c0.869,-1.408 1.567,-3.112 1.567,-4.96c0,-2.933 -1.956,-5.866 -6.844,-5.866c-5.947,0 -6.844,2.933 -6.844,5.866c0,1.679 0.576,3.241 1.333,4.569c0.398,0.699 -0.191,1.547 -0.987,1.438l-7.061,-0.879c-0.991,-0.136 -1.719,-0.997 -1.689,-1.997l0.457,-14.984c0.023,-0.745 -0.757,-1.23 -1.424,-0.896c-1.191,0.596 -2.54,1.018 -3.975,1.018c-1.955,0 -4.589,-1.047 -5.866,-5.866c-1.627,-6.14 2.933,-7.821 5.866,-7.821c1.377,0 2.673,0.389 3.827,0.947c0.669,0.323 1.442,-0.164 1.415,-0.907l-0.274,-7.622c-0.042,-1.168 0.944,-2.112 2.11,-2.019l14.616,1.171c0.828,0.067 1.351,-0.856 0.874,-1.536c-1.072,-1.527 -2.036,-3.503 -2.036,-5.676c0,-1.955 1.047,-4.589 5.866,-5.866c6.14,-1.627 7.821,2.933 7.821,5.866c0,2.098 -0.9,4.014 -1.928,5.519c-0.459,0.673 0.099,1.577 0.91,1.503l10.697,-0.97c1.116,-0.101 2.089,0.754 2.131,1.874l0.424,11.298c0.03,0.787 -0.826,1.269 -1.5,0.861c-1.39,-0.842 -3.06,-1.51 -4.867,-1.51c-1.955,0 -4.888,0.978 -5.866,5.866c-1.246,6.228 2.933,7.821 5.866,7.821c1.811,0 3.485,-0.67 4.875,-1.517z" id="strokeMainSVG" fill="#c0c0c0" stroke="#c0c0c0" stroke-width="3" stroke-linejoin="round"></path><g transform="translate(64.1173,-41.30619) rotate(24) scale(4,4)" fill="#dadbf1" stroke="none" stroke-width="1" stroke-linejoin="miter"><path d="M49.544,41.735c-2.933,0 -7.112,-1.593 -5.866,-7.821c0.978,-4.888 3.911,-5.866 5.866,-5.866c1.807,0 3.477,0.668 4.867,1.51c0.674,0.408 1.53,-0.074 1.5,-0.861l-0.424,-11.298c-0.042,-1.12 -1.015,-1.975 -2.131,-1.874l-10.697,0.97c-0.811,0.074 -1.369,-0.83 -0.91,-1.503c1.028,-1.505 1.928,-3.421 1.928,-5.519c0,-2.933 -1.681,-7.493 -7.821,-5.866c-4.819,1.277 -5.866,3.911 -5.866,5.866c0,2.173 0.964,4.149 2.036,5.676c0.477,0.68 -0.046,1.603 -0.874,1.536l-14.616,-1.171c-1.166,-0.093 -2.152,0.851 -2.11,2.019l0.274,7.622c0.027,0.743 -0.746,1.23 -1.415,0.907c-1.154,-0.558 -2.45,-0.947 -3.827,-0.947c-2.933,0 -7.493,1.681 -5.866,7.821c1.277,4.819 3.911,5.866 5.866,5.866c1.435,0 2.784,-0.422 3.975,-1.018c0.667,-0.334 1.447,0.151 1.424,0.896l-0.457,14.984c-0.03,1 0.698,1.861 1.689,1.997l7.061,0.879c0.796,0.109 1.385,-0.739 0.987,-1.438c-0.757,-1.328 -1.333,-2.89 -1.333,-4.569c0,-2.933 0.897,-5.866 6.844,-5.866c4.888,0 6.844,2.933 6.844,5.866c0,1.848 -0.698,3.552 -1.567,4.96c-0.413,0.67 0.063,1.528 0.85,1.505l17.799,-0.545c1.032,-0.031 1.862,-0.858 1.896,-1.89l0.449,-13.488c0.026,-0.785 -0.828,-1.265 -1.5,-0.857c-1.39,0.847 -3.064,1.517 -4.875,1.517z"></path></g></g></svg>